<?xml version="1.0" ?><!DOCTYPE svg  PUBLIC '-//W3C//DTD SVG 1.1//EN'  'http://www.w3.org/Graphics/SVG/1.1/DTD/svg11.dtd'><svg height="300px" id="Layer_1" style="enable-background:new 0 0 300 300;" version="1.1" viewBox="0 0 300 300" width="300px" xml:space="preserve" xmlns="http://www.w3.org/2000/svg" xmlns:xlink="http://www.w3.org/1999/xlink"><style type="text/css">
<![CDATA[
	.st0{fill:#E5E5E5;}
	.st1{fill:#B22D43;}
	.st2{fill:#1DA1DB;}
	.st3{opacity:0.3;}
	.st4{fill:none;stroke:#1DA1DB;stroke-miterlimit:10;}
	.st5{fill:#D6DAE5;}
]]>
</style><g><circle class="st2" cx="152.96" cy="146.817" r="136"/></g><g><path class="st4" d="M225.171,220.093"/></g><g><path class="st1" d="M209.342,244.495c-6.271,6.271-16.439,6.271-22.712,0L80.189,138.056c-20.752-20.753-20.752-54.521,0-75.274   c20.753-20.753,54.521-20.753,75.274,0l11.293,11.293c6.271,6.271,6.271,16.44,0,22.713c-6.271,6.271-16.441,6.271-22.712,0   l-11.292-11.293c-8.23-8.23-21.621-8.23-29.851,0c-8.23,8.229-8.23,21.619,0,29.85l106.44,106.439   C215.613,228.057,215.613,238.225,209.342,244.495z"/></g><g><path class="st5" d="M98.054,93.053c1.022-2.76,2.635-5.346,4.848-7.559c5.302-5.303,12.746-7.184,19.572-5.652   c-17.027-5.328-18.162-22.88-8.672-32.459c-12.259,0.922-24.257,6.045-33.612,15.398c-1.769,1.77-3.375,3.639-4.842,5.581   C78.239,81.6,84.911,88.824,98.054,93.053z"/></g><g><path class="st5" d="M124.549,80.418c0.005,0.002,0.013,0.004,0.02,0.006c0,0,0,0,0.001,0   C124.563,80.422,124.557,80.42,124.549,80.418z"/></g><g><path class="st5" d="M169.121,226.986l17.509,17.509c6.271,6.271,16.44,6.271,22.712,0c6.272-6.271,6.272-16.438,0-22.712   l-16.695-16.695C188.904,217.175,181.904,223.632,169.121,226.986z"/></g><g><path class="st5" d="M133.894,86.636l10.15,10.151c6.271,6.271,16.44,6.271,22.712,0c6.271-6.272,6.271-16.441,0-22.713   l-10.18-10.18C153.039,76.348,146.321,83.083,133.894,86.636z"/></g><g><path class="st5" d="M117.37,175.234l25.862,25.863c12.784-3.354,19.784-9.812,23.525-21.898l-25.863-25.862   C137.154,165.424,130.153,171.881,117.37,175.234z"/></g><g class="st3"><g><path class="st0" d="M92.729,100.418c0-3.616,0.763-7.11,2.201-10.307c-3.37,4.365-5.201,9.691-5.201,15.307    c0,6.712,2.608,13.018,7.344,17.753l106.441,106.438c2.277,2.279,3.531,5.308,3.531,8.529c0,1.205-0.176,2.385-0.516,3.508    c2.267-2.274,3.516-5.295,3.516-8.508c0-3.223-1.254-6.25-3.531-8.529l-106.44-106.438    C95.337,113.436,92.729,107.131,92.729,100.418z"/></g><g><path class="st0" d="M80.018,70.609c9.282-9.281,21.644-14.393,34.809-14.393s25.527,5.112,34.809,14.394l11.294,11.293    c3.258,3.258,4.254,7.93,2.996,12.058c0,0,0.001-0.001,0.002-0.002c4.702-4.703,4.703-12.354,0.002-17.056L152.637,65.61    c-9.283-9.282-21.645-14.394-34.81-14.394S92.3,56.328,83.018,65.609c-3.648,3.648-6.599,7.733-8.86,12.086    C75.86,75.2,77.806,72.822,80.018,70.609z"/></g></g><g><path class="st5" d="M68.8,121.111c2.591,6.161,6.38,11.934,11.39,16.944l11.455,11.454c12.783-3.355,19.783-9.812,23.523-21.899   l-12.266-12.267c-4.358-4.358-6.407-10.163-6.149-15.883c-0.001,0-0.002,0-0.002,0C93.995,115.057,83.079,118.541,68.8,121.111z"/></g></svg>